<mxfile host="app.diagrams.net" agent="Mozilla/5.0 (Windows NT 10.0; Win64; x64; rv:131.0) Gecko/20100101 Firefox/131.0" version="24.8.3">
  <diagram name="Pagina-1" id="SMdVTLcK4Q-wz1pM8HgI">
    <mxGraphModel dx="719" dy="383" grid="1" gridSize="10" guides="1" tooltips="1" connect="1" arrows="1" fold="1" page="1" pageScale="1" pageWidth="827" pageHeight="1169" math="0" shadow="0">
      <root>
        <mxCell id="0" />
        <mxCell id="1" parent="0" />
        <mxCell id="G6jl1sqOK8s9LdE3ULIL-66" style="edgeStyle=orthogonalEdgeStyle;rounded=0;orthogonalLoop=1;jettySize=auto;html=1;fontSize=14;" parent="1" source="G6jl1sqOK8s9LdE3ULIL-21" edge="1">
          <mxGeometry relative="1" as="geometry">
            <mxPoint x="414" y="430" as="targetPoint" />
            <Array as="points">
              <mxPoint x="414" y="430" />
            </Array>
          </mxGeometry>
        </mxCell>
        <mxCell id="G6jl1sqOK8s9LdE3ULIL-21" value="+" style="whiteSpace=wrap;html=1;aspect=fixed;fontSize=14;" parent="1" vertex="1">
          <mxGeometry x="390" y="350" width="40" height="40" as="geometry" />
        </mxCell>
        <mxCell id="Kao93IQC_tDivpO0lTZn-2" style="edgeStyle=orthogonalEdgeStyle;rounded=0;orthogonalLoop=1;jettySize=auto;html=1;entryX=0.75;entryY=0;entryDx=0;entryDy=0;fontSize=14;" edge="1" parent="1" source="G6jl1sqOK8s9LdE3ULIL-41" target="G6jl1sqOK8s9LdE3ULIL-21">
          <mxGeometry relative="1" as="geometry" />
        </mxCell>
        <mxCell id="G6jl1sqOK8s9LdE3ULIL-41" value="*" style="whiteSpace=wrap;html=1;aspect=fixed;fontSize=14;" parent="1" vertex="1">
          <mxGeometry x="400" y="230" width="40" height="40" as="geometry" />
        </mxCell>
        <mxCell id="G6jl1sqOK8s9LdE3ULIL-42" style="edgeStyle=orthogonalEdgeStyle;rounded=0;orthogonalLoop=1;jettySize=auto;html=1;entryX=0.5;entryY=0;entryDx=0;entryDy=0;fontSize=14;" parent="1" source="G6jl1sqOK8s9LdE3ULIL-47" target="G6jl1sqOK8s9LdE3ULIL-50" edge="1">
          <mxGeometry relative="1" as="geometry" />
        </mxCell>
        <mxCell id="G6jl1sqOK8s9LdE3ULIL-43" style="edgeStyle=orthogonalEdgeStyle;rounded=0;orthogonalLoop=1;jettySize=auto;html=1;entryX=0.5;entryY=0;entryDx=0;entryDy=0;fontSize=14;" parent="1" source="G6jl1sqOK8s9LdE3ULIL-47" target="G6jl1sqOK8s9LdE3ULIL-51" edge="1">
          <mxGeometry relative="1" as="geometry" />
        </mxCell>
        <mxCell id="G6jl1sqOK8s9LdE3ULIL-44" style="edgeStyle=orthogonalEdgeStyle;rounded=0;orthogonalLoop=1;jettySize=auto;html=1;entryX=0.5;entryY=0;entryDx=0;entryDy=0;fontSize=14;" parent="1" source="G6jl1sqOK8s9LdE3ULIL-47" target="G6jl1sqOK8s9LdE3ULIL-52" edge="1">
          <mxGeometry relative="1" as="geometry">
            <Array as="points">
              <mxPoint x="180" y="250" />
              <mxPoint x="300" y="250" />
            </Array>
          </mxGeometry>
        </mxCell>
        <mxCell id="G6jl1sqOK8s9LdE3ULIL-45" style="edgeStyle=orthogonalEdgeStyle;rounded=0;orthogonalLoop=1;jettySize=auto;html=1;entryX=0.93;entryY=1;entryDx=0;entryDy=0;entryPerimeter=0;fontSize=14;" parent="1" source="G6jl1sqOK8s9LdE3ULIL-47" target="G6jl1sqOK8s9LdE3ULIL-49" edge="1">
          <mxGeometry relative="1" as="geometry">
            <mxPoint x="100" y="310" as="targetPoint" />
            <Array as="points">
              <mxPoint x="180" y="250" />
              <mxPoint x="60" y="250" />
              <mxPoint x="60" y="310" />
            </Array>
          </mxGeometry>
        </mxCell>
        <mxCell id="G6jl1sqOK8s9LdE3ULIL-46" value="tanh(x)" style="edgeLabel;html=1;align=center;verticalAlign=middle;resizable=0;points=[];fontSize=14;" parent="G6jl1sqOK8s9LdE3ULIL-45" vertex="1" connectable="0">
          <mxGeometry x="0.7494" y="1" relative="1" as="geometry">
            <mxPoint y="7" as="offset" />
          </mxGeometry>
        </mxCell>
        <mxCell id="G6jl1sqOK8s9LdE3ULIL-47" value="&lt;div style=&quot;font-size: 14px;&quot;&gt;COEFF&lt;/div&gt;&lt;div style=&quot;font-size: 14px;&quot;&gt;TANH&lt;/div&gt;&lt;div style=&quot;font-size: 14px;&quot;&gt;LUT&lt;/div&gt;" style="whiteSpace=wrap;html=1;aspect=fixed;fontSize=14;" parent="1" vertex="1">
          <mxGeometry x="140" y="150" width="80" height="80" as="geometry" />
        </mxCell>
        <mxCell id="G6jl1sqOK8s9LdE3ULIL-48" style="edgeStyle=orthogonalEdgeStyle;rounded=0;orthogonalLoop=1;jettySize=auto;html=1;entryX=0.25;entryY=0;entryDx=0;entryDy=0;fontSize=14;" parent="1" source="G6jl1sqOK8s9LdE3ULIL-49" target="G6jl1sqOK8s9LdE3ULIL-41" edge="1">
          <mxGeometry relative="1" as="geometry">
            <mxPoint x="180" y="430" as="targetPoint" />
            <Array as="points">
              <mxPoint x="180" y="430" />
              <mxPoint x="360" y="430" />
              <mxPoint x="360" y="210" />
              <mxPoint x="410" y="210" />
            </Array>
          </mxGeometry>
        </mxCell>
        <mxCell id="G6jl1sqOK8s9LdE3ULIL-64" value="m" style="edgeLabel;html=1;align=center;verticalAlign=middle;resizable=0;points=[];fontSize=14;" parent="G6jl1sqOK8s9LdE3ULIL-48" vertex="1" connectable="0">
          <mxGeometry x="0.0933" y="2" relative="1" as="geometry">
            <mxPoint x="26" y="-172" as="offset" />
          </mxGeometry>
        </mxCell>
        <mxCell id="G6jl1sqOK8s9LdE3ULIL-62" style="edgeStyle=orthogonalEdgeStyle;rounded=0;orthogonalLoop=1;jettySize=auto;html=1;entryX=0.25;entryY=0;entryDx=0;entryDy=0;fontSize=14;" parent="1" source="G6jl1sqOK8s9LdE3ULIL-49" target="G6jl1sqOK8s9LdE3ULIL-21" edge="1">
          <mxGeometry relative="1" as="geometry">
            <Array as="points">
              <mxPoint x="180" y="430" />
              <mxPoint x="360" y="430" />
              <mxPoint x="360" y="330" />
              <mxPoint x="400" y="330" />
            </Array>
          </mxGeometry>
        </mxCell>
        <mxCell id="G6jl1sqOK8s9LdE3ULIL-65" value="q" style="edgeLabel;html=1;align=center;verticalAlign=middle;resizable=0;points=[];fontSize=14;" parent="G6jl1sqOK8s9LdE3ULIL-62" vertex="1" connectable="0">
          <mxGeometry x="0.3542" relative="1" as="geometry">
            <mxPoint x="19" y="-74" as="offset" />
          </mxGeometry>
        </mxCell>
        <mxCell id="G6jl1sqOK8s9LdE3ULIL-49" value="" style="shape=trapezoid;perimeter=trapezoidPerimeter;whiteSpace=wrap;html=1;fixedSize=1;rotation=-180;fontSize=14;" parent="1" vertex="1">
          <mxGeometry x="40" y="350" width="280" height="40" as="geometry" />
        </mxCell>
        <mxCell id="G6jl1sqOK8s9LdE3ULIL-50" value="&lt;font style=&quot;font-size: 14px;&quot;&gt;*(-1)&lt;/font&gt;" style="whiteSpace=wrap;html=1;aspect=fixed;fontSize=14;" parent="1" vertex="1">
          <mxGeometry x="120" y="270" width="40" height="40" as="geometry" />
        </mxCell>
        <mxCell id="G6jl1sqOK8s9LdE3ULIL-51" value="&lt;div&gt;&lt;font style=&quot;font-size: 14px;&quot;&gt;/2&amp;nbsp;&lt;/font&gt;&lt;/div&gt;&lt;div&gt;&lt;font style=&quot;font-size: 14px;&quot;&gt;+0.5&lt;/font&gt;&lt;/div&gt;" style="whiteSpace=wrap;html=1;aspect=fixed;fontSize=14;" parent="1" vertex="1">
          <mxGeometry x="200" y="270" width="40" height="40" as="geometry" />
        </mxCell>
        <mxCell id="G6jl1sqOK8s9LdE3ULIL-52" value="&lt;font style=&quot;font-size: 14px;&quot;&gt;/(-2) -0.5&lt;/font&gt;" style="whiteSpace=wrap;html=1;aspect=fixed;fontSize=14;" parent="1" vertex="1">
          <mxGeometry x="280" y="270" width="40" height="40" as="geometry" />
        </mxCell>
        <mxCell id="G6jl1sqOK8s9LdE3ULIL-53" style="edgeStyle=orthogonalEdgeStyle;rounded=0;orthogonalLoop=1;jettySize=auto;html=1;entryX=0.643;entryY=1;entryDx=0;entryDy=0;entryPerimeter=0;fontSize=14;" parent="1" source="G6jl1sqOK8s9LdE3ULIL-50" target="G6jl1sqOK8s9LdE3ULIL-49" edge="1">
          <mxGeometry relative="1" as="geometry">
            <mxPoint x="140" y="348" as="targetPoint" />
          </mxGeometry>
        </mxCell>
        <mxCell id="G6jl1sqOK8s9LdE3ULIL-54" value="tanh(-x)" style="edgeLabel;html=1;align=center;verticalAlign=middle;resizable=0;points=[];fontSize=14;" parent="G6jl1sqOK8s9LdE3ULIL-53" vertex="1" connectable="0">
          <mxGeometry x="-0.1821" y="2" relative="1" as="geometry">
            <mxPoint x="-2" as="offset" />
          </mxGeometry>
        </mxCell>
        <mxCell id="G6jl1sqOK8s9LdE3ULIL-55" style="edgeStyle=orthogonalEdgeStyle;rounded=0;orthogonalLoop=1;jettySize=auto;html=1;fontSize=14;" parent="1" source="G6jl1sqOK8s9LdE3ULIL-51" edge="1">
          <mxGeometry relative="1" as="geometry">
            <mxPoint x="220" y="350" as="targetPoint" />
          </mxGeometry>
        </mxCell>
        <mxCell id="G6jl1sqOK8s9LdE3ULIL-56" value="sigm(x)" style="edgeLabel;html=1;align=center;verticalAlign=middle;resizable=0;points=[];fontSize=14;" parent="G6jl1sqOK8s9LdE3ULIL-55" vertex="1" connectable="0">
          <mxGeometry x="-0.188" y="-1" relative="1" as="geometry">
            <mxPoint as="offset" />
          </mxGeometry>
        </mxCell>
        <mxCell id="G6jl1sqOK8s9LdE3ULIL-57" style="edgeStyle=orthogonalEdgeStyle;rounded=0;orthogonalLoop=1;jettySize=auto;html=1;entryX=0.076;entryY=0.989;entryDx=0;entryDy=0;entryPerimeter=0;fontSize=14;" parent="1" source="G6jl1sqOK8s9LdE3ULIL-52" target="G6jl1sqOK8s9LdE3ULIL-49" edge="1">
          <mxGeometry relative="1" as="geometry">
            <mxPoint x="300" y="349" as="targetPoint" />
          </mxGeometry>
        </mxCell>
        <mxCell id="G6jl1sqOK8s9LdE3ULIL-58" value="sigm(-x)" style="edgeLabel;html=1;align=center;verticalAlign=middle;resizable=0;points=[];fontSize=14;" parent="G6jl1sqOK8s9LdE3ULIL-57" vertex="1" connectable="0">
          <mxGeometry x="0.0893" y="-2" relative="1" as="geometry">
            <mxPoint x="2" y="-6" as="offset" />
          </mxGeometry>
        </mxCell>
        <mxCell id="G6jl1sqOK8s9LdE3ULIL-59" value="" style="endArrow=classic;html=1;rounded=0;entryX=0.5;entryY=0;entryDx=0;entryDy=0;fontSize=14;" parent="1" target="G6jl1sqOK8s9LdE3ULIL-47" edge="1">
          <mxGeometry width="50" height="50" relative="1" as="geometry">
            <mxPoint x="180" y="30" as="sourcePoint" />
            <mxPoint x="290" y="210" as="targetPoint" />
          </mxGeometry>
        </mxCell>
        <mxCell id="G6jl1sqOK8s9LdE3ULIL-60" value="x" style="edgeLabel;html=1;align=center;verticalAlign=middle;resizable=0;points=[];fontSize=14;" parent="G6jl1sqOK8s9LdE3ULIL-59" vertex="1" connectable="0">
          <mxGeometry x="-0.2643" y="-2" relative="1" as="geometry">
            <mxPoint x="2" y="-54" as="offset" />
          </mxGeometry>
        </mxCell>
        <mxCell id="G6jl1sqOK8s9LdE3ULIL-61" value="" style="endArrow=classic;html=1;rounded=0;entryX=0.75;entryY=0;entryDx=0;entryDy=0;edgeStyle=orthogonalEdgeStyle;fontSize=14;" parent="1" target="G6jl1sqOK8s9LdE3ULIL-41" edge="1">
          <mxGeometry width="50" height="50" relative="1" as="geometry">
            <mxPoint x="180" y="110" as="sourcePoint" />
            <mxPoint x="280" y="300" as="targetPoint" />
            <Array as="points">
              <mxPoint x="180" y="111" />
              <mxPoint x="430" y="111" />
            </Array>
          </mxGeometry>
        </mxCell>
        <mxCell id="Kao93IQC_tDivpO0lTZn-3" value="CNV" style="whiteSpace=wrap;html=1;aspect=fixed;fontSize=14;" vertex="1" parent="1">
          <mxGeometry x="160" y="40" width="40" height="40" as="geometry" />
        </mxCell>
      </root>
    </mxGraphModel>
  </diagram>
</mxfile>
